<?xml version="1.0" standalone="no"?>
<!DOCTYPE svg PUBLIC "-//W3C//DTD SVG 20010904//EN"
 "http://www.w3.org/TR/2001/REC-SVG-20010904/DTD/svg10.dtd">
<svg version="1.0" xmlns="http://www.w3.org/2000/svg"
 width="744.000000pt" height="744.000000pt" viewBox="0 0 744.000000 744.000000"
 preserveAspectRatio="xMidYMid meet">
<metadata>
Created by potrace 1.16, written by Peter Selinger 2001-2019
</metadata>
<g transform="translate(0.000000,744.000000) scale(0.100000,-0.100000)"
fill="#000000" stroke="none">
<path d="M2270 7160 c-443 -27 -849 -171 -1155 -407 -115 -89 -271 -252 -358
-373 -124 -175 -244 -443 -291 -650 -46 -201 -46 -203 -46 -1993 0 -1090 4
-1723 10 -1777 24 -198 103 -444 202 -630 291 -549 803 -877 1480 -950 134
-14 3287 -14 3429 0 557 57 1020 343 1338 829 78 119 143 255 192 403 64 190
79 271 89 493 12 260 12 3099 0 3315 -15 274 -70 490 -183 713 -244 480 -678
831 -1198 966 -265 68 -162 65 -1854 67 -841 1 -1586 -2 -1655 -6z m3792 -840
c152 -57 226 -247 153 -395 -134 -275 -550 -180 -549 125 0 205 202 343 396
270z m-2150 -83 c43 -26 71 -60 86 -106 9 -25 12 -333 12 -1163 l0 -1129 135
3 136 3 0 795 c0 437 3 815 8 839 16 79 71 131 150 139 27 2 61 2 75 -2 37 -9
87 -56 107 -101 18 -38 19 -113 19 -1771 0 -1281 -3 -1740 -12 -1765 -17 -52
-46 -88 -88 -109 -84 -43 -179 -14 -227 67 l-28 48 0 748 0 747 -137 0 -138 0
-2 -1077 -3 -1078 -25 -45 c-71 -128 -255 -116 -324 21 l-26 53 0 2373 c0
2583 -4 2410 53 2472 56 60 163 78 229 38z m-654 -461 c38 -20 78 -65 96 -108
14 -33 16 -245 16 -1966 l0 -1928 -26 -52 c-59 -118 -198 -137 -292 -39 -63
66 -62 45 -62 964 l0 833 -130 0 -130 0 0 -392 c0 -378 -1 -393 -21 -435 -31
-64 -78 -96 -150 -101 -49 -4 -65 0 -102 22 -25 14 -55 43 -68 63 l-24 38 -3
1095 c-2 810 0 1105 9 1135 25 87 89 135 179 135 77 0 126 -33 165 -109 15
-30 17 -84 20 -505 1 -259 3 -497 4 -528 l1 -58 125 0 125 0 2 903 3 902 22
41 c19 36 74 83 113 97 30 11 102 7 128 -7z m2271 -40 c175 -89 203 -314 56
-444 -125 -110 -314 -74 -403 77 -23 40 -27 57 -27 126 0 92 19 136 82 197 48
47 101 66 181 67 48 1 74 -5 111 -23z m-396 -1030 c42 -17 83 -66 97 -114 8
-25 10 -315 8 -933 l-3 -895 -25 -37 c-29 -43 -91 -77 -140 -77 -47 0 -111 34
-137 72 -12 18 -27 56 -33 83 -7 34 -10 326 -8 915 l3 865 25 44 c43 76 136
110 213 77z m-3113 -276 c44 -22 82 -68 99 -119 15 -46 16 -1139 0 -1195 -6
-21 -27 -56 -47 -77 -86 -90 -228 -72 -289 36 -21 37 -23 52 -23 223 l0 182
-255 0 c-310 0 -338 7 -386 102 -34 66 -22 147 29 202 50 53 69 56 351 56
l260 0 3 249 3 249 31 39 c58 72 146 93 224 53z m3718 -114 c36 -19 78 -65 91
-99 6 -16 11 -104 11 -203 l0 -174 248 0 c221 0 251 -2 289 -19 132 -60 132
-256 1 -320 -42 -20 -60 -21 -291 -21 l-247 0 0 -182 c0 -157 -3 -189 -19
-224 -61 -133 -244 -135 -311 -3 -19 37 -20 61 -20 585 0 536 0 547 21 584 30
53 91 90 151 90 27 0 61 -6 76 -14z m-3711 -1881 c48 -20 71 -41 94 -87 23
-44 25 -128 5 -166 -8 -15 -176 -188 -373 -384 -386 -385 -380 -379 -470 -365
-114 19 -186 152 -139 260 19 44 701 722 746 741 45 20 91 20 137 1z"/>
</g>
</svg>
